<?xml version="1.0" encoding="utf-8" standalone="no"?>
<!DOCTYPE svg PUBLIC "-//W3C//DTD SVG 1.1//EN"
  "http://www.w3.org/Graphics/SVG/1.1/DTD/svg11.dtd">
<!-- Created with matplotlib (https://matplotlib.org/) -->
<svg height="864pt" version="1.1" viewBox="0 0 1440 864" width="1440pt" xmlns="http://www.w3.org/2000/svg" xmlns:xlink="http://www.w3.org/1999/xlink">
 <defs>
  <style type="text/css">
*{stroke-linecap:butt;stroke-linejoin:round;}
  </style>
 </defs>
 <g id="figure_1">
  <g id="patch_1">
   <path d="M 0 864 
L 1440 864 
L 1440 0 
L 0 0 
z
" style="fill:#ffffff;"/>
  </g>
  <g id="axes_1">
   <g id="patch_2">
    <path d="M 180 756 
L 1296 756 
L 1296 103.68 
L 180 103.68 
z
" style="fill:#e5e5e5;"/>
   </g>
   <g id="matplotlib.axis_1">
    <g id="xtick_1">
     <g id="line2d_1">
      <path clip-path="url(#pb49506f1bb)" d="M 230.727273 756 
L 230.727273 103.68 
" style="fill:none;stroke:#ffffff;stroke-linecap:square;stroke-width:0.8;"/>
     </g>
     <g id="line2d_2">
      <defs>
       <path d="M 0 0 
L 0 3.5 
" id="m096f1c55c4" style="stroke:#555555;stroke-width:0.8;"/>
      </defs>
      <g>
       <use style="fill:#555555;stroke:#555555;stroke-width:0.8;" x="230.727273" xlink:href="#m096f1c55c4" y="756"/>
      </g>
     </g>
     <g id="text_1">
      <!-- 0 -->
      <defs>
       <path d="M 31.78125 66.40625 
Q 24.171875 66.40625 20.328125 58.90625 
Q 16.5 51.421875 16.5 36.375 
Q 16.5 21.390625 20.328125 13.890625 
Q 24.171875 6.390625 31.78125 6.390625 
Q 39.453125 6.390625 43.28125 13.890625 
Q 47.125 21.390625 47.125 36.375 
Q 47.125 51.421875 43.28125 58.90625 
Q 39.453125 66.40625 31.78125 66.40625 
z
M 31.78125 74.21875 
Q 44.046875 74.21875 50.515625 64.515625 
Q 56.984375 54.828125 56.984375 36.375 
Q 56.984375 17.96875 50.515625 8.265625 
Q 44.046875 -1.421875 31.78125 -1.421875 
Q 19.53125 -1.421875 13.0625 8.265625 
Q 6.59375 17.96875 6.59375 36.375 
Q 6.59375 54.828125 13.0625 64.515625 
Q 19.53125 74.21875 31.78125 74.21875 
z
" id="DejaVuSans-48"/>
      </defs>
      <g style="fill:#555555;" transform="translate(227.546023 770.598438)scale(0.1 -0.1)">
       <use xlink:href="#DejaVuSans-48"/>
      </g>
     </g>
    </g>
    <g id="xtick_2">
     <g id="line2d_3">
      <path clip-path="url(#pb49506f1bb)" d="M 357.545455 756 
L 357.545455 103.68 
" style="fill:none;stroke:#ffffff;stroke-linecap:square;stroke-width:0.8;"/>
     </g>
     <g id="line2d_4">
      <g>
       <use style="fill:#555555;stroke:#555555;stroke-width:0.8;" x="357.545455" xlink:href="#m096f1c55c4" y="756"/>
      </g>
     </g>
     <g id="text_2">
      <!-- 2000 -->
      <defs>
       <path d="M 19.1875 8.296875 
L 53.609375 8.296875 
L 53.609375 0 
L 7.328125 0 
L 7.328125 8.296875 
Q 12.9375 14.109375 22.625 23.890625 
Q 32.328125 33.6875 34.8125 36.53125 
Q 39.546875 41.84375 41.421875 45.53125 
Q 43.3125 49.21875 43.3125 52.78125 
Q 43.3125 58.59375 39.234375 62.25 
Q 35.15625 65.921875 28.609375 65.921875 
Q 23.96875 65.921875 18.8125 64.3125 
Q 13.671875 62.703125 7.8125 59.421875 
L 7.8125 69.390625 
Q 13.765625 71.78125 18.9375 73 
Q 24.125 74.21875 28.421875 74.21875 
Q 39.75 74.21875 46.484375 68.546875 
Q 53.21875 62.890625 53.21875 53.421875 
Q 53.21875 48.921875 51.53125 44.890625 
Q 49.859375 40.875 45.40625 35.40625 
Q 44.1875 33.984375 37.640625 27.21875 
Q 31.109375 20.453125 19.1875 8.296875 
z
" id="DejaVuSans-50"/>
      </defs>
      <g style="fill:#555555;" transform="translate(344.820455 770.598438)scale(0.1 -0.1)">
       <use xlink:href="#DejaVuSans-50"/>
       <use x="63.623047" xlink:href="#DejaVuSans-48"/>
       <use x="127.246094" xlink:href="#DejaVuSans-48"/>
       <use x="190.869141" xlink:href="#DejaVuSans-48"/>
      </g>
     </g>
    </g>
    <g id="xtick_3">
     <g id="line2d_5">
      <path clip-path="url(#pb49506f1bb)" d="M 484.363636 756 
L 484.363636 103.68 
" style="fill:none;stroke:#ffffff;stroke-linecap:square;stroke-width:0.8;"/>
     </g>
     <g id="line2d_6">
      <g>
       <use style="fill:#555555;stroke:#555555;stroke-width:0.8;" x="484.363636" xlink:href="#m096f1c55c4" y="756"/>
      </g>
     </g>
     <g id="text_3">
      <!-- 4000 -->
      <defs>
       <path d="M 37.796875 64.3125 
L 12.890625 25.390625 
L 37.796875 25.390625 
z
M 35.203125 72.90625 
L 47.609375 72.90625 
L 47.609375 25.390625 
L 58.015625 25.390625 
L 58.015625 17.1875 
L 47.609375 17.1875 
L 47.609375 0 
L 37.796875 0 
L 37.796875 17.1875 
L 4.890625 17.1875 
L 4.890625 26.703125 
z
" id="DejaVuSans-52"/>
      </defs>
      <g style="fill:#555555;" transform="translate(471.638636 770.598438)scale(0.1 -0.1)">
       <use xlink:href="#DejaVuSans-52"/>
       <use x="63.623047" xlink:href="#DejaVuSans-48"/>
       <use x="127.246094" xlink:href="#DejaVuSans-48"/>
       <use x="190.869141" xlink:href="#DejaVuSans-48"/>
      </g>
     </g>
    </g>
    <g id="xtick_4">
     <g id="line2d_7">
      <path clip-path="url(#pb49506f1bb)" d="M 611.181818 756 
L 611.181818 103.68 
" style="fill:none;stroke:#ffffff;stroke-linecap:square;stroke-width:0.8;"/>
     </g>
     <g id="line2d_8">
      <g>
       <use style="fill:#555555;stroke:#555555;stroke-width:0.8;" x="611.181818" xlink:href="#m096f1c55c4" y="756"/>
      </g>
     </g>
     <g id="text_4">
      <!-- 6000 -->
      <defs>
       <path d="M 33.015625 40.375 
Q 26.375 40.375 22.484375 35.828125 
Q 18.609375 31.296875 18.609375 23.390625 
Q 18.609375 15.53125 22.484375 10.953125 
Q 26.375 6.390625 33.015625 6.390625 
Q 39.65625 6.390625 43.53125 10.953125 
Q 47.40625 15.53125 47.40625 23.390625 
Q 47.40625 31.296875 43.53125 35.828125 
Q 39.65625 40.375 33.015625 40.375 
z
M 52.59375 71.296875 
L 52.59375 62.3125 
Q 48.875 64.0625 45.09375 64.984375 
Q 41.3125 65.921875 37.59375 65.921875 
Q 27.828125 65.921875 22.671875 59.328125 
Q 17.53125 52.734375 16.796875 39.40625 
Q 19.671875 43.65625 24.015625 45.921875 
Q 28.375 48.1875 33.59375 48.1875 
Q 44.578125 48.1875 50.953125 41.515625 
Q 57.328125 34.859375 57.328125 23.390625 
Q 57.328125 12.15625 50.6875 5.359375 
Q 44.046875 -1.421875 33.015625 -1.421875 
Q 20.359375 -1.421875 13.671875 8.265625 
Q 6.984375 17.96875 6.984375 36.375 
Q 6.984375 53.65625 15.1875 63.9375 
Q 23.390625 74.21875 37.203125 74.21875 
Q 40.921875 74.21875 44.703125 73.484375 
Q 48.484375 72.75 52.59375 71.296875 
z
" id="DejaVuSans-54"/>
      </defs>
      <g style="fill:#555555;" transform="translate(598.456818 770.598438)scale(0.1 -0.1)">
       <use xlink:href="#DejaVuSans-54"/>
       <use x="63.623047" xlink:href="#DejaVuSans-48"/>
       <use x="127.246094" xlink:href="#DejaVuSans-48"/>
       <use x="190.869141" xlink:href="#DejaVuSans-48"/>
      </g>
     </g>
    </g>
    <g id="xtick_5">
     <g id="line2d_9">
      <path clip-path="url(#pb49506f1bb)" d="M 738 756 
L 738 103.68 
" style="fill:none;stroke:#ffffff;stroke-linecap:square;stroke-width:0.8;"/>
     </g>
     <g id="line2d_10">
      <g>
       <use style="fill:#555555;stroke:#555555;stroke-width:0.8;" x="738" xlink:href="#m096f1c55c4" y="756"/>
      </g>
     </g>
     <g id="text_5">
      <!-- 8000 -->
      <defs>
       <path d="M 31.78125 34.625 
Q 24.75 34.625 20.71875 30.859375 
Q 16.703125 27.09375 16.703125 20.515625 
Q 16.703125 13.921875 20.71875 10.15625 
Q 24.75 6.390625 31.78125 6.390625 
Q 38.8125 6.390625 42.859375 10.171875 
Q 46.921875 13.96875 46.921875 20.515625 
Q 46.921875 27.09375 42.890625 30.859375 
Q 38.875 34.625 31.78125 34.625 
z
M 21.921875 38.8125 
Q 15.578125 40.375 12.03125 44.71875 
Q 8.5 49.078125 8.5 55.328125 
Q 8.5 64.0625 14.71875 69.140625 
Q 20.953125 74.21875 31.78125 74.21875 
Q 42.671875 74.21875 48.875 69.140625 
Q 55.078125 64.0625 55.078125 55.328125 
Q 55.078125 49.078125 51.53125 44.71875 
Q 48 40.375 41.703125 38.8125 
Q 48.828125 37.15625 52.796875 32.3125 
Q 56.78125 27.484375 56.78125 20.515625 
Q 56.78125 9.90625 50.3125 4.234375 
Q 43.84375 -1.421875 31.78125 -1.421875 
Q 19.734375 -1.421875 13.25 4.234375 
Q 6.78125 9.90625 6.78125 20.515625 
Q 6.78125 27.484375 10.78125 32.3125 
Q 14.796875 37.15625 21.921875 38.8125 
z
M 18.3125 54.390625 
Q 18.3125 48.734375 21.84375 45.5625 
Q 25.390625 42.390625 31.78125 42.390625 
Q 38.140625 42.390625 41.71875 45.5625 
Q 45.3125 48.734375 45.3125 54.390625 
Q 45.3125 60.0625 41.71875 63.234375 
Q 38.140625 66.40625 31.78125 66.40625 
Q 25.390625 66.40625 21.84375 63.234375 
Q 18.3125 60.0625 18.3125 54.390625 
z
" id="DejaVuSans-56"/>
      </defs>
      <g style="fill:#555555;" transform="translate(725.275 770.598438)scale(0.1 -0.1)">
       <use xlink:href="#DejaVuSans-56"/>
       <use x="63.623047" xlink:href="#DejaVuSans-48"/>
       <use x="127.246094" xlink:href="#DejaVuSans-48"/>
       <use x="190.869141" xlink:href="#DejaVuSans-48"/>
      </g>
     </g>
    </g>
    <g id="xtick_6">
     <g id="line2d_11">
      <path clip-path="url(#pb49506f1bb)" d="M 864.818182 756 
L 864.818182 103.68 
" style="fill:none;stroke:#ffffff;stroke-linecap:square;stroke-width:0.8;"/>
     </g>
     <g id="line2d_12">
      <g>
       <use style="fill:#555555;stroke:#555555;stroke-width:0.8;" x="864.818182" xlink:href="#m096f1c55c4" y="756"/>
      </g>
     </g>
     <g id="text_6">
      <!-- 10000 -->
      <defs>
       <path d="M 12.40625 8.296875 
L 28.515625 8.296875 
L 28.515625 63.921875 
L 10.984375 60.40625 
L 10.984375 69.390625 
L 28.421875 72.90625 
L 38.28125 72.90625 
L 38.28125 8.296875 
L 54.390625 8.296875 
L 54.390625 0 
L 12.40625 0 
z
" id="DejaVuSans-49"/>
      </defs>
      <g style="fill:#555555;" transform="translate(848.911932 770.598438)scale(0.1 -0.1)">
       <use xlink:href="#DejaVuSans-49"/>
       <use x="63.623047" xlink:href="#DejaVuSans-48"/>
       <use x="127.246094" xlink:href="#DejaVuSans-48"/>
       <use x="190.869141" xlink:href="#DejaVuSans-48"/>
       <use x="254.492188" xlink:href="#DejaVuSans-48"/>
      </g>
     </g>
    </g>
    <g id="xtick_7">
     <g id="line2d_13">
      <path clip-path="url(#pb49506f1bb)" d="M 991.636364 756 
L 991.636364 103.68 
" style="fill:none;stroke:#ffffff;stroke-linecap:square;stroke-width:0.8;"/>
     </g>
     <g id="line2d_14">
      <g>
       <use style="fill:#555555;stroke:#555555;stroke-width:0.8;" x="991.636364" xlink:href="#m096f1c55c4" y="756"/>
      </g>
     </g>
     <g id="text_7">
      <!-- 12000 -->
      <g style="fill:#555555;" transform="translate(975.730114 770.598438)scale(0.1 -0.1)">
       <use xlink:href="#DejaVuSans-49"/>
       <use x="63.623047" xlink:href="#DejaVuSans-50"/>
       <use x="127.246094" xlink:href="#DejaVuSans-48"/>
       <use x="190.869141" xlink:href="#DejaVuSans-48"/>
       <use x="254.492188" xlink:href="#DejaVuSans-48"/>
      </g>
     </g>
    </g>
    <g id="xtick_8">
     <g id="line2d_15">
      <path clip-path="url(#pb49506f1bb)" d="M 1118.454545 756 
L 1118.454545 103.68 
" style="fill:none;stroke:#ffffff;stroke-linecap:square;stroke-width:0.8;"/>
     </g>
     <g id="line2d_16">
      <g>
       <use style="fill:#555555;stroke:#555555;stroke-width:0.8;" x="1118.454545" xlink:href="#m096f1c55c4" y="756"/>
      </g>
     </g>
     <g id="text_8">
      <!-- 14000 -->
      <g style="fill:#555555;" transform="translate(1102.548295 770.598438)scale(0.1 -0.1)">
       <use xlink:href="#DejaVuSans-49"/>
       <use x="63.623047" xlink:href="#DejaVuSans-52"/>
       <use x="127.246094" xlink:href="#DejaVuSans-48"/>
       <use x="190.869141" xlink:href="#DejaVuSans-48"/>
       <use x="254.492188" xlink:href="#DejaVuSans-48"/>
      </g>
     </g>
    </g>
    <g id="xtick_9">
     <g id="line2d_17">
      <path clip-path="url(#pb49506f1bb)" d="M 1245.272727 756 
L 1245.272727 103.68 
" style="fill:none;stroke:#ffffff;stroke-linecap:square;stroke-width:0.8;"/>
     </g>
     <g id="line2d_18">
      <g>
       <use style="fill:#555555;stroke:#555555;stroke-width:0.8;" x="1245.272727" xlink:href="#m096f1c55c4" y="756"/>
      </g>
     </g>
     <g id="text_9">
      <!-- 16000 -->
      <g style="fill:#555555;" transform="translate(1229.366477 770.598438)scale(0.1 -0.1)">
       <use xlink:href="#DejaVuSans-49"/>
       <use x="63.623047" xlink:href="#DejaVuSans-54"/>
       <use x="127.246094" xlink:href="#DejaVuSans-48"/>
       <use x="190.869141" xlink:href="#DejaVuSans-48"/>
       <use x="254.492188" xlink:href="#DejaVuSans-48"/>
      </g>
     </g>
    </g>
    <g id="text_10">
     <!-- Time Series -->
     <defs>
      <path d="M -0.296875 72.90625 
L 61.375 72.90625 
L 61.375 64.59375 
L 35.5 64.59375 
L 35.5 0 
L 25.59375 0 
L 25.59375 64.59375 
L -0.296875 64.59375 
z
" id="DejaVuSans-84"/>
      <path d="M 9.421875 54.6875 
L 18.40625 54.6875 
L 18.40625 0 
L 9.421875 0 
z
M 9.421875 75.984375 
L 18.40625 75.984375 
L 18.40625 64.59375 
L 9.421875 64.59375 
z
" id="DejaVuSans-105"/>
      <path d="M 52 44.1875 
Q 55.375 50.25 60.0625 53.125 
Q 64.75 56 71.09375 56 
Q 79.640625 56 84.28125 50.015625 
Q 88.921875 44.046875 88.921875 33.015625 
L 88.921875 0 
L 79.890625 0 
L 79.890625 32.71875 
Q 79.890625 40.578125 77.09375 44.375 
Q 74.3125 48.1875 68.609375 48.1875 
Q 61.625 48.1875 57.5625 43.546875 
Q 53.515625 38.921875 53.515625 30.90625 
L 53.515625 0 
L 44.484375 0 
L 44.484375 32.71875 
Q 44.484375 40.625 41.703125 44.40625 
Q 38.921875 48.1875 33.109375 48.1875 
Q 26.21875 48.1875 22.15625 43.53125 
Q 18.109375 38.875 18.109375 30.90625 
L 18.109375 0 
L 9.078125 0 
L 9.078125 54.6875 
L 18.109375 54.6875 
L 18.109375 46.1875 
Q 21.1875 51.21875 25.484375 53.609375 
Q 29.78125 56 35.6875 56 
Q 41.65625 56 45.828125 52.96875 
Q 50 49.953125 52 44.1875 
z
" id="DejaVuSans-109"/>
      <path d="M 56.203125 29.59375 
L 56.203125 25.203125 
L 14.890625 25.203125 
Q 15.484375 15.921875 20.484375 11.0625 
Q 25.484375 6.203125 34.421875 6.203125 
Q 39.59375 6.203125 44.453125 7.46875 
Q 49.3125 8.734375 54.109375 11.28125 
L 54.109375 2.78125 
Q 49.265625 0.734375 44.1875 -0.34375 
Q 39.109375 -1.421875 33.890625 -1.421875 
Q 20.796875 -1.421875 13.15625 6.1875 
Q 5.515625 13.8125 5.515625 26.8125 
Q 5.515625 40.234375 12.765625 48.109375 
Q 20.015625 56 32.328125 56 
Q 43.359375 56 49.78125 48.890625 
Q 56.203125 41.796875 56.203125 29.59375 
z
M 47.21875 32.234375 
Q 47.125 39.59375 43.09375 43.984375 
Q 39.0625 48.390625 32.421875 48.390625 
Q 24.90625 48.390625 20.390625 44.140625 
Q 15.875 39.890625 15.1875 32.171875 
z
" id="DejaVuSans-101"/>
      <path id="DejaVuSans-32"/>
      <path d="M 53.515625 70.515625 
L 53.515625 60.890625 
Q 47.90625 63.578125 42.921875 64.890625 
Q 37.9375 66.21875 33.296875 66.21875 
Q 25.25 66.21875 20.875 63.09375 
Q 16.5 59.96875 16.5 54.203125 
Q 16.5 49.359375 19.40625 46.890625 
Q 22.3125 44.4375 30.421875 42.921875 
L 36.375 41.703125 
Q 47.40625 39.59375 52.65625 34.296875 
Q 57.90625 29 57.90625 20.125 
Q 57.90625 9.515625 50.796875 4.046875 
Q 43.703125 -1.421875 29.984375 -1.421875 
Q 24.8125 -1.421875 18.96875 -0.25 
Q 13.140625 0.921875 6.890625 3.21875 
L 6.890625 13.375 
Q 12.890625 10.015625 18.65625 8.296875 
Q 24.421875 6.59375 29.984375 6.59375 
Q 38.421875 6.59375 43.015625 9.90625 
Q 47.609375 13.234375 47.609375 19.390625 
Q 47.609375 24.75 44.3125 27.78125 
Q 41.015625 30.8125 33.5 32.328125 
L 27.484375 33.5 
Q 16.453125 35.6875 11.515625 40.375 
Q 6.59375 45.0625 6.59375 53.421875 
Q 6.59375 63.09375 13.40625 68.65625 
Q 20.21875 74.21875 32.171875 74.21875 
Q 37.3125 74.21875 42.625 73.28125 
Q 47.953125 72.359375 53.515625 70.515625 
z
" id="DejaVuSans-83"/>
      <path d="M 41.109375 46.296875 
Q 39.59375 47.171875 37.8125 47.578125 
Q 36.03125 48 33.890625 48 
Q 26.265625 48 22.1875 43.046875 
Q 18.109375 38.09375 18.109375 28.8125 
L 18.109375 0 
L 9.078125 0 
L 9.078125 54.6875 
L 18.109375 54.6875 
L 18.109375 46.1875 
Q 20.953125 51.171875 25.484375 53.578125 
Q 30.03125 56 36.53125 56 
Q 37.453125 56 38.578125 55.875 
Q 39.703125 55.765625 41.0625 55.515625 
z
" id="DejaVuSans-114"/>
      <path d="M 44.28125 53.078125 
L 44.28125 44.578125 
Q 40.484375 46.53125 36.375 47.5 
Q 32.28125 48.484375 27.875 48.484375 
Q 21.1875 48.484375 17.84375 46.4375 
Q 14.5 44.390625 14.5 40.28125 
Q 14.5 37.15625 16.890625 35.375 
Q 19.28125 33.59375 26.515625 31.984375 
L 29.59375 31.296875 
Q 39.15625 29.25 43.1875 25.515625 
Q 47.21875 21.78125 47.21875 15.09375 
Q 47.21875 7.46875 41.1875 3.015625 
Q 35.15625 -1.421875 24.609375 -1.421875 
Q 20.21875 -1.421875 15.453125 -0.5625 
Q 10.6875 0.296875 5.421875 2 
L 5.421875 11.28125 
Q 10.40625 8.6875 15.234375 7.390625 
Q 20.0625 6.109375 24.8125 6.109375 
Q 31.15625 6.109375 34.5625 8.28125 
Q 37.984375 10.453125 37.984375 14.40625 
Q 37.984375 18.0625 35.515625 20.015625 
Q 33.0625 21.96875 24.703125 23.78125 
L 21.578125 24.515625 
Q 13.234375 26.265625 9.515625 29.90625 
Q 5.8125 33.546875 5.8125 39.890625 
Q 5.8125 47.609375 11.28125 51.796875 
Q 16.75 56 26.8125 56 
Q 31.78125 56 36.171875 55.265625 
Q 40.578125 54.546875 44.28125 53.078125 
z
" id="DejaVuSans-115"/>
     </defs>
     <g style="fill:#555555;" transform="translate(702.77625 785.79625)scale(0.12 -0.12)">
      <use xlink:href="#DejaVuSans-84"/>
      <use x="61.037109" xlink:href="#DejaVuSans-105"/>
      <use x="88.820312" xlink:href="#DejaVuSans-109"/>
      <use x="186.232422" xlink:href="#DejaVuSans-101"/>
      <use x="247.755859" xlink:href="#DejaVuSans-32"/>
      <use x="279.542969" xlink:href="#DejaVuSans-83"/>
      <use x="343.019531" xlink:href="#DejaVuSans-101"/>
      <use x="404.542969" xlink:href="#DejaVuSans-114"/>
      <use x="445.65625" xlink:href="#DejaVuSans-105"/>
      <use x="473.439453" xlink:href="#DejaVuSans-101"/>
      <use x="534.962891" xlink:href="#DejaVuSans-115"/>
     </g>
    </g>
   </g>
   <g id="matplotlib.axis_2">
    <g id="ytick_1">
     <g id="line2d_19">
      <path clip-path="url(#pb49506f1bb)" d="M 180 726.349091 
L 1296 726.349091 
" style="fill:none;stroke:#ffffff;stroke-linecap:square;stroke-width:0.8;"/>
     </g>
     <g id="line2d_20">
      <defs>
       <path d="M 0 0 
L -3.5 0 
" id="m7550f4b8cf" style="stroke:#555555;stroke-width:0.8;"/>
      </defs>
      <g>
       <use style="fill:#555555;stroke:#555555;stroke-width:0.8;" x="180" xlink:href="#m7550f4b8cf" y="726.349091"/>
      </g>
     </g>
     <g id="text_11">
      <!-- 0.0 -->
      <defs>
       <path d="M 10.6875 12.40625 
L 21 12.40625 
L 21 0 
L 10.6875 0 
z
" id="DejaVuSans-46"/>
      </defs>
      <g style="fill:#555555;" transform="translate(157.096875 730.14831)scale(0.1 -0.1)">
       <use xlink:href="#DejaVuSans-48"/>
       <use x="63.623047" xlink:href="#DejaVuSans-46"/>
       <use x="95.410156" xlink:href="#DejaVuSans-48"/>
      </g>
     </g>
    </g>
    <g id="ytick_2">
     <g id="line2d_21">
      <path clip-path="url(#pb49506f1bb)" d="M 180 607.745455 
L 1296 607.745455 
" style="fill:none;stroke:#ffffff;stroke-linecap:square;stroke-width:0.8;"/>
     </g>
     <g id="line2d_22">
      <g>
       <use style="fill:#555555;stroke:#555555;stroke-width:0.8;" x="180" xlink:href="#m7550f4b8cf" y="607.745455"/>
      </g>
     </g>
     <g id="text_12">
      <!-- 0.2 -->
      <g style="fill:#555555;" transform="translate(157.096875 611.544673)scale(0.1 -0.1)">
       <use xlink:href="#DejaVuSans-48"/>
       <use x="63.623047" xlink:href="#DejaVuSans-46"/>
       <use x="95.410156" xlink:href="#DejaVuSans-50"/>
      </g>
     </g>
    </g>
    <g id="ytick_3">
     <g id="line2d_23">
      <path clip-path="url(#pb49506f1bb)" d="M 180 489.141818 
L 1296 489.141818 
" style="fill:none;stroke:#ffffff;stroke-linecap:square;stroke-width:0.8;"/>
     </g>
     <g id="line2d_24">
      <g>
       <use style="fill:#555555;stroke:#555555;stroke-width:0.8;" x="180" xlink:href="#m7550f4b8cf" y="489.141818"/>
      </g>
     </g>
     <g id="text_13">
      <!-- 0.4 -->
      <g style="fill:#555555;" transform="translate(157.096875 492.941037)scale(0.1 -0.1)">
       <use xlink:href="#DejaVuSans-48"/>
       <use x="63.623047" xlink:href="#DejaVuSans-46"/>
       <use x="95.410156" xlink:href="#DejaVuSans-52"/>
      </g>
     </g>
    </g>
    <g id="ytick_4">
     <g id="line2d_25">
      <path clip-path="url(#pb49506f1bb)" d="M 180 370.538182 
L 1296 370.538182 
" style="fill:none;stroke:#ffffff;stroke-linecap:square;stroke-width:0.8;"/>
     </g>
     <g id="line2d_26">
      <g>
       <use style="fill:#555555;stroke:#555555;stroke-width:0.8;" x="180" xlink:href="#m7550f4b8cf" y="370.538182"/>
      </g>
     </g>
     <g id="text_14">
      <!-- 0.6 -->
      <g style="fill:#555555;" transform="translate(157.096875 374.337401)scale(0.1 -0.1)">
       <use xlink:href="#DejaVuSans-48"/>
       <use x="63.623047" xlink:href="#DejaVuSans-46"/>
       <use x="95.410156" xlink:href="#DejaVuSans-54"/>
      </g>
     </g>
    </g>
    <g id="ytick_5">
     <g id="line2d_27">
      <path clip-path="url(#pb49506f1bb)" d="M 180 251.934545 
L 1296 251.934545 
" style="fill:none;stroke:#ffffff;stroke-linecap:square;stroke-width:0.8;"/>
     </g>
     <g id="line2d_28">
      <g>
       <use style="fill:#555555;stroke:#555555;stroke-width:0.8;" x="180" xlink:href="#m7550f4b8cf" y="251.934545"/>
      </g>
     </g>
     <g id="text_15">
      <!-- 0.8 -->
      <g style="fill:#555555;" transform="translate(157.096875 255.733764)scale(0.1 -0.1)">
       <use xlink:href="#DejaVuSans-48"/>
       <use x="63.623047" xlink:href="#DejaVuSans-46"/>
       <use x="95.410156" xlink:href="#DejaVuSans-56"/>
      </g>
     </g>
    </g>
    <g id="ytick_6">
     <g id="line2d_29">
      <path clip-path="url(#pb49506f1bb)" d="M 180 133.330909 
L 1296 133.330909 
" style="fill:none;stroke:#ffffff;stroke-linecap:square;stroke-width:0.8;"/>
     </g>
     <g id="line2d_30">
      <g>
       <use style="fill:#555555;stroke:#555555;stroke-width:0.8;" x="180" xlink:href="#m7550f4b8cf" y="133.330909"/>
      </g>
     </g>
     <g id="text_16">
      <!-- 1.0 -->
      <g style="fill:#555555;" transform="translate(157.096875 137.130128)scale(0.1 -0.1)">
       <use xlink:href="#DejaVuSans-49"/>
       <use x="63.623047" xlink:href="#DejaVuSans-46"/>
       <use x="95.410156" xlink:href="#DejaVuSans-48"/>
      </g>
     </g>
    </g>
    <g id="text_17">
     <!-- precision -->
     <defs>
      <path d="M 18.109375 8.203125 
L 18.109375 -20.796875 
L 9.078125 -20.796875 
L 9.078125 54.6875 
L 18.109375 54.6875 
L 18.109375 46.390625 
Q 20.953125 51.265625 25.265625 53.625 
Q 29.59375 56 35.59375 56 
Q 45.5625 56 51.78125 48.09375 
Q 58.015625 40.1875 58.015625 27.296875 
Q 58.015625 14.40625 51.78125 6.484375 
Q 45.5625 -1.421875 35.59375 -1.421875 
Q 29.59375 -1.421875 25.265625 0.953125 
Q 20.953125 3.328125 18.109375 8.203125 
z
M 48.6875 27.296875 
Q 48.6875 37.203125 44.609375 42.84375 
Q 40.53125 48.484375 33.40625 48.484375 
Q 26.265625 48.484375 22.1875 42.84375 
Q 18.109375 37.203125 18.109375 27.296875 
Q 18.109375 17.390625 22.1875 11.75 
Q 26.265625 6.109375 33.40625 6.109375 
Q 40.53125 6.109375 44.609375 11.75 
Q 48.6875 17.390625 48.6875 27.296875 
z
" id="DejaVuSans-112"/>
      <path d="M 48.78125 52.59375 
L 48.78125 44.1875 
Q 44.96875 46.296875 41.140625 47.34375 
Q 37.3125 48.390625 33.40625 48.390625 
Q 24.65625 48.390625 19.8125 42.84375 
Q 14.984375 37.3125 14.984375 27.296875 
Q 14.984375 17.28125 19.8125 11.734375 
Q 24.65625 6.203125 33.40625 6.203125 
Q 37.3125 6.203125 41.140625 7.25 
Q 44.96875 8.296875 48.78125 10.40625 
L 48.78125 2.09375 
Q 45.015625 0.34375 40.984375 -0.53125 
Q 36.96875 -1.421875 32.421875 -1.421875 
Q 20.0625 -1.421875 12.78125 6.34375 
Q 5.515625 14.109375 5.515625 27.296875 
Q 5.515625 40.671875 12.859375 48.328125 
Q 20.21875 56 33.015625 56 
Q 37.15625 56 41.109375 55.140625 
Q 45.0625 54.296875 48.78125 52.59375 
z
" id="DejaVuSans-99"/>
      <path d="M 30.609375 48.390625 
Q 23.390625 48.390625 19.1875 42.75 
Q 14.984375 37.109375 14.984375 27.296875 
Q 14.984375 17.484375 19.15625 11.84375 
Q 23.34375 6.203125 30.609375 6.203125 
Q 37.796875 6.203125 41.984375 11.859375 
Q 46.1875 17.53125 46.1875 27.296875 
Q 46.1875 37.015625 41.984375 42.703125 
Q 37.796875 48.390625 30.609375 48.390625 
z
M 30.609375 56 
Q 42.328125 56 49.015625 48.375 
Q 55.71875 40.765625 55.71875 27.296875 
Q 55.71875 13.875 49.015625 6.21875 
Q 42.328125 -1.421875 30.609375 -1.421875 
Q 18.84375 -1.421875 12.171875 6.21875 
Q 5.515625 13.875 5.515625 27.296875 
Q 5.515625 40.765625 12.171875 48.375 
Q 18.84375 56 30.609375 56 
z
" id="DejaVuSans-111"/>
      <path d="M 54.890625 33.015625 
L 54.890625 0 
L 45.90625 0 
L 45.90625 32.71875 
Q 45.90625 40.484375 42.875 44.328125 
Q 39.84375 48.1875 33.796875 48.1875 
Q 26.515625 48.1875 22.3125 43.546875 
Q 18.109375 38.921875 18.109375 30.90625 
L 18.109375 0 
L 9.078125 0 
L 9.078125 54.6875 
L 18.109375 54.6875 
L 18.109375 46.1875 
Q 21.34375 51.125 25.703125 53.5625 
Q 30.078125 56 35.796875 56 
Q 45.21875 56 50.046875 50.171875 
Q 54.890625 44.34375 54.890625 33.015625 
z
" id="DejaVuSans-110"/>
     </defs>
     <g style="fill:#555555;" transform="translate(150.60125 457.037812)rotate(-90)scale(0.12 -0.12)">
      <use xlink:href="#DejaVuSans-112"/>
      <use x="63.476562" xlink:href="#DejaVuSans-114"/>
      <use x="104.558594" xlink:href="#DejaVuSans-101"/>
      <use x="166.082031" xlink:href="#DejaVuSans-99"/>
      <use x="221.0625" xlink:href="#DejaVuSans-105"/>
      <use x="248.845703" xlink:href="#DejaVuSans-115"/>
      <use x="300.945312" xlink:href="#DejaVuSans-105"/>
      <use x="328.728516" xlink:href="#DejaVuSans-111"/>
      <use x="389.910156" xlink:href="#DejaVuSans-110"/>
     </g>
    </g>
   </g>
   <g id="line2d_31"/>
   <g id="line2d_32">
    <path clip-path="url(#pb49506f1bb)" d="M 230.727273 726.349091 
L 343.454545 726.349091 
L 456.181818 133.330909 
L 568.909091 133.330909 
L 681.636364 147.620504 
L 794.363636 157.051636 
L 907.090909 152.460528 
L 1019.818182 149.622617 
L 1132.545455 149.533592 
L 1245.272727 149.019221 
" style="fill:none;stroke:#348abd;stroke-linecap:square;stroke-width:1.5;"/>
   </g>
   <g id="line2d_33">
    <path clip-path="url(#pb49506f1bb)" d="M 230.727273 726.349091 
L 284.124402 726.349091 
L 337.521531 133.330909 
L 390.91866 133.330909 
L 444.315789 147.620504 
L 497.712919 157.051636 
L 551.110048 152.460528 
L 604.507177 149.622617 
L 657.904306 149.533592 
L 711.301435 149.019221 
L 764.698565 210.030422 
L 818.095694 247.93667 
L 871.492823 250.187162 
L 924.889952 265.112727 
L 978.287081 262.913031 
L 1031.684211 261.743869 
L 1085.08134 259.956807 
L 1138.478469 255.382326 
L 1191.875598 255.382326 
L 1245.272727 255.382326 
" style="fill:none;stroke:#988ed5;stroke-linecap:square;stroke-width:1.5;"/>
   </g>
   <g id="line2d_34">
    <path clip-path="url(#pb49506f1bb)" d="M 230.727273 726.349091 
L 265.711599 726.349091 
L 300.695925 133.330909 
L 335.680251 133.330909 
L 370.664577 147.620504 
L 405.648903 157.051636 
L 440.633229 152.460528 
L 475.617555 149.622617 
L 510.601881 149.533592 
L 545.586207 149.019221 
L 580.570533 210.030422 
L 615.554859 247.93667 
L 650.539185 250.187162 
L 685.523511 265.112727 
L 720.507837 262.913031 
L 755.492163 261.743869 
L 790.476489 259.956807 
L 825.460815 255.382326 
L 860.445141 255.382326 
L 895.429467 255.382326 
L 930.413793 255.382326 
L 965.398119 255.382326 
L 1000.382445 255.382326 
L 1035.366771 255.382326 
L 1070.351097 255.382326 
L 1105.335423 255.382326 
L 1140.319749 259.951744 
L 1175.304075 261.121322 
L 1210.288401 257.736417 
L 1245.272727 257.008498 
" style="fill:none;stroke:#777777;stroke-linecap:square;stroke-width:1.5;"/>
   </g>
   <g id="line2d_35">
    <path clip-path="url(#pb49506f1bb)" d="M 230.727273 726.349091 
L 256.741259 726.349091 
L 282.755245 133.330909 
L 308.769231 133.330909 
L 334.783217 147.620504 
L 360.797203 157.051636 
L 386.811189 152.460528 
L 412.825175 149.622617 
L 438.839161 149.533592 
L 464.853147 149.019221 
L 490.867133 210.030422 
L 516.881119 247.93667 
L 542.895105 250.187162 
L 568.909091 265.112727 
L 594.923077 262.913031 
L 620.937063 261.743869 
L 646.951049 259.956807 
L 672.965035 255.382326 
L 698.979021 255.382326 
L 724.993007 255.382326 
L 751.006993 255.382326 
L 777.020979 255.382326 
L 803.034965 255.382326 
L 829.048951 255.382326 
L 855.062937 255.382326 
L 881.076923 255.382326 
L 907.090909 259.951744 
L 933.104895 261.121322 
L 959.118881 257.736417 
L 985.132867 257.008498 
L 1011.146853 257.008498 
L 1037.160839 257.008498 
L 1063.174825 257.791515 
L 1089.188811 259.106895 
L 1115.202797 259.106895 
L 1141.216783 259.106895 
L 1167.230769 259.106895 
L 1193.244755 259.106895 
L 1219.258741 259.106895 
L 1245.272727 259.106895 
" style="fill:none;stroke:#fbc15e;stroke-linecap:square;stroke-width:1.5;"/>
   </g>
   <g id="line2d_36">
    <path clip-path="url(#pb49506f1bb)" d="M 230.727273 726.349091 
L 251.432282 726.349091 
L 272.137291 133.330909 
L 292.842301 133.330909 
L 313.54731 147.620504 
L 334.252319 157.051636 
L 354.957328 152.460528 
L 375.662338 149.622617 
L 396.367347 149.533592 
L 417.072356 149.019221 
L 437.777365 210.030422 
L 458.482375 247.93667 
L 479.187384 250.187162 
L 499.892393 265.112727 
L 520.597403 262.913031 
L 541.302412 261.743869 
L 562.007421 259.956807 
L 582.71243 255.382326 
L 603.41744 255.382326 
L 624.122449 255.382326 
L 644.827458 255.382326 
L 665.532468 255.382326 
L 686.237477 255.382326 
L 706.942486 255.382326 
L 727.647495 255.382326 
L 748.352505 255.382326 
L 769.057514 259.951744 
L 789.762523 261.121322 
L 810.467532 257.736417 
L 831.172542 257.008498 
L 851.877551 257.008498 
L 872.58256 257.008498 
L 893.28757 257.791515 
L 913.992579 259.106895 
L 934.697588 259.106895 
L 955.402597 259.106895 
L 976.107607 259.106895 
L 996.812616 259.106895 
L 1017.517625 259.106895 
L 1038.222635 259.106895 
L 1058.927644 259.106895 
L 1079.632653 259.106895 
L 1100.337662 259.106895 
L 1121.042672 259.106895 
L 1141.747681 259.106895 
L 1162.45269 259.106895 
L 1183.157699 259.106895 
L 1203.862709 259.106895 
L 1224.567718 259.106895 
L 1245.272727 259.106895 
" style="fill:none;stroke:#8eba42;stroke-linecap:square;stroke-width:1.5;"/>
   </g>
   <g id="line2d_37">
    <path clip-path="url(#pb49506f1bb)" d="M 230.727273 726.349091 
L 247.922958 726.349091 
L 265.118644 133.330909 
L 282.31433 133.330909 
L 299.510015 147.620504 
L 316.705701 157.051636 
L 333.901387 152.460528 
L 351.097072 149.622617 
L 368.292758 149.533592 
L 385.488444 149.019221 
L 402.684129 210.030422 
L 419.879815 247.93667 
L 437.075501 250.187162 
L 454.271186 265.112727 
L 471.466872 262.913031 
L 488.662558 261.743869 
L 505.858243 259.956807 
L 523.053929 255.382326 
L 540.249615 255.382326 
L 557.4453 255.382326 
L 574.640986 255.382326 
L 591.836672 255.382326 
L 609.032357 255.382326 
L 626.228043 255.382326 
L 643.423729 255.382326 
L 660.619414 255.382326 
L 677.8151 259.951744 
L 695.010786 261.121322 
L 712.206471 257.736417 
L 729.402157 257.008498 
L 746.597843 257.008498 
L 763.793529 257.008498 
L 780.989214 257.791515 
L 798.1849 259.106895 
L 815.380586 259.106895 
L 832.576271 259.106895 
L 849.771957 259.106895 
L 866.967643 259.106895 
L 884.163328 259.106895 
L 901.359014 259.106895 
L 918.5547 259.106895 
L 935.750385 259.106895 
L 952.946071 259.106895 
L 970.141757 259.106895 
L 987.337442 259.106895 
L 1004.533128 259.106895 
L 1021.728814 259.106895 
L 1038.924499 259.106895 
L 1056.120185 259.106895 
L 1073.315871 259.106895 
L 1090.511556 259.106895 
L 1107.707242 259.106895 
L 1124.902928 254.003214 
L 1142.098613 248.484597 
L 1159.294299 245.00024 
L 1176.489985 240.36767 
L 1193.68567 235.249488 
L 1210.881356 231.124145 
L 1228.077042 229.937881 
L 1245.272727 224.998404 
" style="fill:none;stroke:#ffb5b8;stroke-linecap:square;stroke-width:1.5;"/>
   </g>
   <g id="line2d_38">
    <path clip-path="url(#pb49506f1bb)" d="M 230.727273 726.349091 
L 245.647059 726.349091 
L 260.566845 133.330909 
L 275.486631 133.330909 
L 290.406417 147.620504 
L 305.326203 157.051636 
L 320.245989 152.460528 
L 335.165775 149.622617 
L 350.085561 149.533592 
L 365.005348 149.019221 
L 379.925134 210.030422 
L 394.84492 247.93667 
L 409.764706 250.187162 
L 424.684492 265.112727 
L 439.604278 262.913031 
L 454.524064 261.743869 
L 469.44385 259.956807 
L 484.363636 255.382326 
L 499.283422 255.382326 
L 514.203209 255.382326 
L 529.122995 255.382326 
L 544.042781 255.382326 
L 558.962567 255.382326 
L 573.882353 255.382326 
L 588.802139 255.382326 
L 603.721925 255.382326 
L 618.641711 259.951744 
L 633.561497 261.121322 
L 648.481283 257.736417 
L 663.40107 257.008498 
L 678.320856 257.008498 
L 693.240642 257.008498 
L 708.160428 257.791515 
L 723.080214 259.106895 
L 738 259.106895 
L 752.919786 259.106895 
L 767.839572 259.106895 
L 782.759358 259.106895 
L 797.679144 259.106895 
L 812.59893 259.106895 
L 827.518717 259.106895 
L 842.438503 259.106895 
L 857.358289 259.106895 
L 872.278075 259.106895 
L 887.197861 259.106895 
L 902.117647 259.106895 
L 917.037433 259.106895 
L 931.957219 259.106895 
L 946.877005 259.106895 
L 961.796791 259.106895 
L 976.716578 259.106895 
L 991.636364 259.106895 
L 1006.55615 254.003214 
L 1021.475936 248.484597 
L 1036.395722 245.00024 
L 1051.315508 240.36767 
L 1066.235294 235.249488 
L 1081.15508 231.124145 
L 1096.074866 229.937881 
L 1110.994652 224.998404 
L 1125.914439 222.130534 
L 1140.834225 218.699461 
L 1155.754011 218.09401 
L 1170.673797 217.497087 
L 1185.593583 215.703147 
L 1200.513369 214.237438 
L 1215.433155 213.003135 
L 1230.352941 211.713438 
L 1245.272727 209.725281 
" style="fill:none;stroke:#e24a33;stroke-linecap:square;stroke-width:1.5;"/>
   </g>
   <g id="patch_3">
    <path d="M 180 756 
L 180 103.68 
" style="fill:none;stroke:#ffffff;stroke-linecap:square;stroke-linejoin:miter;"/>
   </g>
   <g id="patch_4">
    <path d="M 1296 756 
L 1296 103.68 
" style="fill:none;stroke:#ffffff;stroke-linecap:square;stroke-linejoin:miter;"/>
   </g>
   <g id="patch_5">
    <path d="M 180 756 
L 1296 756 
" style="fill:none;stroke:#ffffff;stroke-linecap:square;stroke-linejoin:miter;"/>
   </g>
   <g id="patch_6">
    <path d="M 180 103.68 
L 1296 103.68 
" style="fill:none;stroke:#ffffff;stroke-linecap:square;stroke-linejoin:miter;"/>
   </g>
   <g id="text_18">
    <!--   -->
    <g transform="translate(735.71175 97.68)scale(0.144 -0.144)">
     <use xlink:href="#DejaVuSans-32"/>
    </g>
   </g>
   <g id="legend_1">
    <g id="patch_7">
     <path d="M 1166.767188 751 
L 1289 751 
Q 1291 751 1291 749 
L 1291 630.35 
Q 1291 628.35 1289 628.35 
L 1166.767188 628.35 
Q 1164.767188 628.35 1164.767188 630.35 
L 1164.767188 749 
Q 1164.767188 751 1166.767188 751 
z
" style="fill:#e5e5e5;opacity:0.8;stroke:#cccccc;stroke-linejoin:miter;stroke-width:0.5;"/>
    </g>
    <g id="line2d_39">
     <path d="M 1168.767188 636.448437 
L 1188.767188 636.448437 
" style="fill:none;stroke:#e24a33;stroke-linecap:square;stroke-width:1.5;"/>
    </g>
    <g id="line2d_40"/>
    <g id="text_19">
     <!-- chunk_number 0 -->
     <defs>
      <path d="M 54.890625 33.015625 
L 54.890625 0 
L 45.90625 0 
L 45.90625 32.71875 
Q 45.90625 40.484375 42.875 44.328125 
Q 39.84375 48.1875 33.796875 48.1875 
Q 26.515625 48.1875 22.3125 43.546875 
Q 18.109375 38.921875 18.109375 30.90625 
L 18.109375 0 
L 9.078125 0 
L 9.078125 75.984375 
L 18.109375 75.984375 
L 18.109375 46.1875 
Q 21.34375 51.125 25.703125 53.5625 
Q 30.078125 56 35.796875 56 
Q 45.21875 56 50.046875 50.171875 
Q 54.890625 44.34375 54.890625 33.015625 
z
" id="DejaVuSans-104"/>
      <path d="M 8.5 21.578125 
L 8.5 54.6875 
L 17.484375 54.6875 
L 17.484375 21.921875 
Q 17.484375 14.15625 20.5 10.265625 
Q 23.53125 6.390625 29.59375 6.390625 
Q 36.859375 6.390625 41.078125 11.03125 
Q 45.3125 15.671875 45.3125 23.6875 
L 45.3125 54.6875 
L 54.296875 54.6875 
L 54.296875 0 
L 45.3125 0 
L 45.3125 8.40625 
Q 42.046875 3.421875 37.71875 1 
Q 33.40625 -1.421875 27.6875 -1.421875 
Q 18.265625 -1.421875 13.375 4.4375 
Q 8.5 10.296875 8.5 21.578125 
z
M 31.109375 56 
z
" id="DejaVuSans-117"/>
      <path d="M 9.078125 75.984375 
L 18.109375 75.984375 
L 18.109375 31.109375 
L 44.921875 54.6875 
L 56.390625 54.6875 
L 27.390625 29.109375 
L 57.625 0 
L 45.90625 0 
L 18.109375 26.703125 
L 18.109375 0 
L 9.078125 0 
z
" id="DejaVuSans-107"/>
      <path d="M 50.984375 -16.609375 
L 50.984375 -23.578125 
L -0.984375 -23.578125 
L -0.984375 -16.609375 
z
" id="DejaVuSans-95"/>
      <path d="M 48.6875 27.296875 
Q 48.6875 37.203125 44.609375 42.84375 
Q 40.53125 48.484375 33.40625 48.484375 
Q 26.265625 48.484375 22.1875 42.84375 
Q 18.109375 37.203125 18.109375 27.296875 
Q 18.109375 17.390625 22.1875 11.75 
Q 26.265625 6.109375 33.40625 6.109375 
Q 40.53125 6.109375 44.609375 11.75 
Q 48.6875 17.390625 48.6875 27.296875 
z
M 18.109375 46.390625 
Q 20.953125 51.265625 25.265625 53.625 
Q 29.59375 56 35.59375 56 
Q 45.5625 56 51.78125 48.09375 
Q 58.015625 40.1875 58.015625 27.296875 
Q 58.015625 14.40625 51.78125 6.484375 
Q 45.5625 -1.421875 35.59375 -1.421875 
Q 29.59375 -1.421875 25.265625 0.953125 
Q 20.953125 3.328125 18.109375 8.203125 
L 18.109375 0 
L 9.078125 0 
L 9.078125 75.984375 
L 18.109375 75.984375 
z
" id="DejaVuSans-98"/>
     </defs>
     <g transform="translate(1196.767188 639.948437)scale(0.1 -0.1)">
      <use xlink:href="#DejaVuSans-99"/>
      <use x="54.980469" xlink:href="#DejaVuSans-104"/>
      <use x="118.359375" xlink:href="#DejaVuSans-117"/>
      <use x="181.738281" xlink:href="#DejaVuSans-110"/>
      <use x="245.117188" xlink:href="#DejaVuSans-107"/>
      <use x="303.027344" xlink:href="#DejaVuSans-95"/>
      <use x="353.027344" xlink:href="#DejaVuSans-110"/>
      <use x="416.40625" xlink:href="#DejaVuSans-117"/>
      <use x="479.785156" xlink:href="#DejaVuSans-109"/>
      <use x="577.197266" xlink:href="#DejaVuSans-98"/>
      <use x="640.673828" xlink:href="#DejaVuSans-101"/>
      <use x="702.197266" xlink:href="#DejaVuSans-114"/>
      <use x="743.310547" xlink:href="#DejaVuSans-32"/>
      <use x="775.097656" xlink:href="#DejaVuSans-48"/>
     </g>
    </g>
    <g id="line2d_41">
     <path d="M 1168.767188 651.404688 
L 1188.767188 651.404688 
" style="fill:none;stroke:#348abd;stroke-linecap:square;stroke-width:1.5;"/>
    </g>
    <g id="line2d_42"/>
    <g id="text_20">
     <!-- chunk_number 5 -->
     <defs>
      <path d="M 10.796875 72.90625 
L 49.515625 72.90625 
L 49.515625 64.59375 
L 19.828125 64.59375 
L 19.828125 46.734375 
Q 21.96875 47.46875 24.109375 47.828125 
Q 26.265625 48.1875 28.421875 48.1875 
Q 40.625 48.1875 47.75 41.5 
Q 54.890625 34.8125 54.890625 23.390625 
Q 54.890625 11.625 47.5625 5.09375 
Q 40.234375 -1.421875 26.90625 -1.421875 
Q 22.3125 -1.421875 17.546875 -0.640625 
Q 12.796875 0.140625 7.71875 1.703125 
L 7.71875 11.625 
Q 12.109375 9.234375 16.796875 8.0625 
Q 21.484375 6.890625 26.703125 6.890625 
Q 35.15625 6.890625 40.078125 11.328125 
Q 45.015625 15.765625 45.015625 23.390625 
Q 45.015625 31 40.078125 35.4375 
Q 35.15625 39.890625 26.703125 39.890625 
Q 22.75 39.890625 18.8125 39.015625 
Q 14.890625 38.140625 10.796875 36.28125 
z
" id="DejaVuSans-53"/>
     </defs>
     <g transform="translate(1196.767188 654.904688)scale(0.1 -0.1)">
      <use xlink:href="#DejaVuSans-99"/>
      <use x="54.980469" xlink:href="#DejaVuSans-104"/>
      <use x="118.359375" xlink:href="#DejaVuSans-117"/>
      <use x="181.738281" xlink:href="#DejaVuSans-110"/>
      <use x="245.117188" xlink:href="#DejaVuSans-107"/>
      <use x="303.027344" xlink:href="#DejaVuSans-95"/>
      <use x="353.027344" xlink:href="#DejaVuSans-110"/>
      <use x="416.40625" xlink:href="#DejaVuSans-117"/>
      <use x="479.785156" xlink:href="#DejaVuSans-109"/>
      <use x="577.197266" xlink:href="#DejaVuSans-98"/>
      <use x="640.673828" xlink:href="#DejaVuSans-101"/>
      <use x="702.197266" xlink:href="#DejaVuSans-114"/>
      <use x="743.310547" xlink:href="#DejaVuSans-32"/>
      <use x="775.097656" xlink:href="#DejaVuSans-53"/>
     </g>
    </g>
    <g id="line2d_43">
     <path d="M 1168.767188 666.360937 
L 1188.767188 666.360937 
" style="fill:none;stroke:#988ed5;stroke-linecap:square;stroke-width:1.5;"/>
    </g>
    <g id="line2d_44"/>
    <g id="text_21">
     <!-- chunk_number 10 -->
     <g transform="translate(1196.767188 669.860937)scale(0.1 -0.1)">
      <use xlink:href="#DejaVuSans-99"/>
      <use x="54.980469" xlink:href="#DejaVuSans-104"/>
      <use x="118.359375" xlink:href="#DejaVuSans-117"/>
      <use x="181.738281" xlink:href="#DejaVuSans-110"/>
      <use x="245.117188" xlink:href="#DejaVuSans-107"/>
      <use x="303.027344" xlink:href="#DejaVuSans-95"/>
      <use x="353.027344" xlink:href="#DejaVuSans-110"/>
      <use x="416.40625" xlink:href="#DejaVuSans-117"/>
      <use x="479.785156" xlink:href="#DejaVuSans-109"/>
      <use x="577.197266" xlink:href="#DejaVuSans-98"/>
      <use x="640.673828" xlink:href="#DejaVuSans-101"/>
      <use x="702.197266" xlink:href="#DejaVuSans-114"/>
      <use x="743.310547" xlink:href="#DejaVuSans-32"/>
      <use x="775.097656" xlink:href="#DejaVuSans-49"/>
      <use x="838.720703" xlink:href="#DejaVuSans-48"/>
     </g>
    </g>
    <g id="line2d_45">
     <path d="M 1168.767188 681.317188 
L 1188.767188 681.317188 
" style="fill:none;stroke:#777777;stroke-linecap:square;stroke-width:1.5;"/>
    </g>
    <g id="line2d_46"/>
    <g id="text_22">
     <!-- chunk_number 15 -->
     <g transform="translate(1196.767188 684.817188)scale(0.1 -0.1)">
      <use xlink:href="#DejaVuSans-99"/>
      <use x="54.980469" xlink:href="#DejaVuSans-104"/>
      <use x="118.359375" xlink:href="#DejaVuSans-117"/>
      <use x="181.738281" xlink:href="#DejaVuSans-110"/>
      <use x="245.117188" xlink:href="#DejaVuSans-107"/>
      <use x="303.027344" xlink:href="#DejaVuSans-95"/>
      <use x="353.027344" xlink:href="#DejaVuSans-110"/>
      <use x="416.40625" xlink:href="#DejaVuSans-117"/>
      <use x="479.785156" xlink:href="#DejaVuSans-109"/>
      <use x="577.197266" xlink:href="#DejaVuSans-98"/>
      <use x="640.673828" xlink:href="#DejaVuSans-101"/>
      <use x="702.197266" xlink:href="#DejaVuSans-114"/>
      <use x="743.310547" xlink:href="#DejaVuSans-32"/>
      <use x="775.097656" xlink:href="#DejaVuSans-49"/>
      <use x="838.720703" xlink:href="#DejaVuSans-53"/>
     </g>
    </g>
    <g id="line2d_47">
     <path d="M 1168.767188 696.273438 
L 1188.767188 696.273438 
" style="fill:none;stroke:#fbc15e;stroke-linecap:square;stroke-width:1.5;"/>
    </g>
    <g id="line2d_48"/>
    <g id="text_23">
     <!-- chunk_number 20 -->
     <g transform="translate(1196.767188 699.773438)scale(0.1 -0.1)">
      <use xlink:href="#DejaVuSans-99"/>
      <use x="54.980469" xlink:href="#DejaVuSans-104"/>
      <use x="118.359375" xlink:href="#DejaVuSans-117"/>
      <use x="181.738281" xlink:href="#DejaVuSans-110"/>
      <use x="245.117188" xlink:href="#DejaVuSans-107"/>
      <use x="303.027344" xlink:href="#DejaVuSans-95"/>
      <use x="353.027344" xlink:href="#DejaVuSans-110"/>
      <use x="416.40625" xlink:href="#DejaVuSans-117"/>
      <use x="479.785156" xlink:href="#DejaVuSans-109"/>
      <use x="577.197266" xlink:href="#DejaVuSans-98"/>
      <use x="640.673828" xlink:href="#DejaVuSans-101"/>
      <use x="702.197266" xlink:href="#DejaVuSans-114"/>
      <use x="743.310547" xlink:href="#DejaVuSans-32"/>
      <use x="775.097656" xlink:href="#DejaVuSans-50"/>
      <use x="838.720703" xlink:href="#DejaVuSans-48"/>
     </g>
    </g>
    <g id="line2d_49">
     <path d="M 1168.767188 711.229687 
L 1188.767188 711.229687 
" style="fill:none;stroke:#8eba42;stroke-linecap:square;stroke-width:1.5;"/>
    </g>
    <g id="line2d_50"/>
    <g id="text_24">
     <!-- chunk_number 25 -->
     <g transform="translate(1196.767188 714.729687)scale(0.1 -0.1)">
      <use xlink:href="#DejaVuSans-99"/>
      <use x="54.980469" xlink:href="#DejaVuSans-104"/>
      <use x="118.359375" xlink:href="#DejaVuSans-117"/>
      <use x="181.738281" xlink:href="#DejaVuSans-110"/>
      <use x="245.117188" xlink:href="#DejaVuSans-107"/>
      <use x="303.027344" xlink:href="#DejaVuSans-95"/>
      <use x="353.027344" xlink:href="#DejaVuSans-110"/>
      <use x="416.40625" xlink:href="#DejaVuSans-117"/>
      <use x="479.785156" xlink:href="#DejaVuSans-109"/>
      <use x="577.197266" xlink:href="#DejaVuSans-98"/>
      <use x="640.673828" xlink:href="#DejaVuSans-101"/>
      <use x="702.197266" xlink:href="#DejaVuSans-114"/>
      <use x="743.310547" xlink:href="#DejaVuSans-32"/>
      <use x="775.097656" xlink:href="#DejaVuSans-50"/>
      <use x="838.720703" xlink:href="#DejaVuSans-53"/>
     </g>
    </g>
    <g id="line2d_51">
     <path d="M 1168.767188 726.185938 
L 1188.767188 726.185938 
" style="fill:none;stroke:#ffb5b8;stroke-linecap:square;stroke-width:1.5;"/>
    </g>
    <g id="line2d_52"/>
    <g id="text_25">
     <!-- chunk_number 30 -->
     <defs>
      <path d="M 40.578125 39.3125 
Q 47.65625 37.796875 51.625 33 
Q 55.609375 28.21875 55.609375 21.1875 
Q 55.609375 10.40625 48.1875 4.484375 
Q 40.765625 -1.421875 27.09375 -1.421875 
Q 22.515625 -1.421875 17.65625 -0.515625 
Q 12.796875 0.390625 7.625 2.203125 
L 7.625 11.71875 
Q 11.71875 9.328125 16.59375 8.109375 
Q 21.484375 6.890625 26.8125 6.890625 
Q 36.078125 6.890625 40.9375 10.546875 
Q 45.796875 14.203125 45.796875 21.1875 
Q 45.796875 27.640625 41.28125 31.265625 
Q 36.765625 34.90625 28.71875 34.90625 
L 20.21875 34.90625 
L 20.21875 43.015625 
L 29.109375 43.015625 
Q 36.375 43.015625 40.234375 45.921875 
Q 44.09375 48.828125 44.09375 54.296875 
Q 44.09375 59.90625 40.109375 62.90625 
Q 36.140625 65.921875 28.71875 65.921875 
Q 24.65625 65.921875 20.015625 65.03125 
Q 15.375 64.15625 9.8125 62.3125 
L 9.8125 71.09375 
Q 15.4375 72.65625 20.34375 73.4375 
Q 25.25 74.21875 29.59375 74.21875 
Q 40.828125 74.21875 47.359375 69.109375 
Q 53.90625 64.015625 53.90625 55.328125 
Q 53.90625 49.265625 50.4375 45.09375 
Q 46.96875 40.921875 40.578125 39.3125 
z
" id="DejaVuSans-51"/>
     </defs>
     <g transform="translate(1196.767188 729.685938)scale(0.1 -0.1)">
      <use xlink:href="#DejaVuSans-99"/>
      <use x="54.980469" xlink:href="#DejaVuSans-104"/>
      <use x="118.359375" xlink:href="#DejaVuSans-117"/>
      <use x="181.738281" xlink:href="#DejaVuSans-110"/>
      <use x="245.117188" xlink:href="#DejaVuSans-107"/>
      <use x="303.027344" xlink:href="#DejaVuSans-95"/>
      <use x="353.027344" xlink:href="#DejaVuSans-110"/>
      <use x="416.40625" xlink:href="#DejaVuSans-117"/>
      <use x="479.785156" xlink:href="#DejaVuSans-109"/>
      <use x="577.197266" xlink:href="#DejaVuSans-98"/>
      <use x="640.673828" xlink:href="#DejaVuSans-101"/>
      <use x="702.197266" xlink:href="#DejaVuSans-114"/>
      <use x="743.310547" xlink:href="#DejaVuSans-32"/>
      <use x="775.097656" xlink:href="#DejaVuSans-51"/>
      <use x="838.720703" xlink:href="#DejaVuSans-48"/>
     </g>
    </g>
    <g id="line2d_53">
     <path d="M 1168.767188 741.142187 
L 1188.767188 741.142187 
" style="fill:none;stroke:#e24a33;stroke-linecap:square;stroke-width:1.5;"/>
    </g>
    <g id="line2d_54"/>
    <g id="text_26">
     <!-- chunk_number 36 -->
     <g transform="translate(1196.767188 744.642187)scale(0.1 -0.1)">
      <use xlink:href="#DejaVuSans-99"/>
      <use x="54.980469" xlink:href="#DejaVuSans-104"/>
      <use x="118.359375" xlink:href="#DejaVuSans-117"/>
      <use x="181.738281" xlink:href="#DejaVuSans-110"/>
      <use x="245.117188" xlink:href="#DejaVuSans-107"/>
      <use x="303.027344" xlink:href="#DejaVuSans-95"/>
      <use x="353.027344" xlink:href="#DejaVuSans-110"/>
      <use x="416.40625" xlink:href="#DejaVuSans-117"/>
      <use x="479.785156" xlink:href="#DejaVuSans-109"/>
      <use x="577.197266" xlink:href="#DejaVuSans-98"/>
      <use x="640.673828" xlink:href="#DejaVuSans-101"/>
      <use x="702.197266" xlink:href="#DejaVuSans-114"/>
      <use x="743.310547" xlink:href="#DejaVuSans-32"/>
      <use x="775.097656" xlink:href="#DejaVuSans-51"/>
      <use x="838.720703" xlink:href="#DejaVuSans-54"/>
     </g>
    </g>
   </g>
  </g>
 </g>
 <defs>
  <clipPath id="pb49506f1bb">
   <rect height="652.32" width="1116" x="180" y="103.68"/>
  </clipPath>
 </defs>
</svg>
